<svg xmlns="http://www.w3.org/2000/svg" width="181" height="48" fill="none"><g fill="#fff"><path fill-rule="evenodd" d="m16.175 28.494 4.568 4.568a7.12 7.12 0 0 0 11.913-3.19l3.19 3.19a7.12 7.12 0 0 0 10.069-10.068L35.846 12.925a7.12 7.12 0 0 0-11.912 3.191l-3.19-3.19a7.12 7.12 0 0 0-10.07 0L2.39 21.21a8.158 8.158 0 1 0 13.786 7.283zm2.051-13.051a3.56 3.56 0 0 0-5.036 5.032l10.07 10.07a3.56 3.56 0 0 0 5.037-5.032zm-6.817 8.285-3.251-3.251-3.252 3.251a4.598 4.598 0 1 0 6.503 0m16.883-3.254a3.56 3.56 0 0 1 5.037-5.031L43.398 25.51a3.56 3.56 0 0 1-5.035 5.034z" clip-rule="evenodd"/><path d="M60.553 33H56V11.54h4.553l6.38 14.008 6.409-14.008h4.611V33H73.4v-4.495c0-4.64 0-5.655.232-7.25L69.079 31h-4.292l-4.524-9.745c.261 1.595.29 3.393.29 5.742zm25.697.377c-3.073 0-4.987-1.798-4.987-4.64 0-2.668 1.885-4.321 5.365-4.582l4.06-.32v-.231c0-1.421-.87-2.175-2.465-2.175-1.885 0-2.9.725-2.9 2.03H81.61c0-3.277 2.697-5.423 6.844-5.423 4.205 0 6.583 2.349 6.583 6.496V33h-3.944l-.29-1.914c-.464 1.334-2.378 2.29-4.553 2.29zm1.567-3.306c1.71 0 2.9-.841 2.9-2.494v-.783l-2.262.203c-1.943.174-2.64.609-2.64 1.537 0 1.044.639 1.537 2.002 1.537m9.699-4.582c0-4.408 2.871-7.482 6.96-7.482 1.972 0 3.538.754 4.321 1.943l.232-1.45h4.205v13.572c0 5.19-2.987 8.323-7.946 8.323-4.437 0-7.424-2.523-7.83-6.641h4.524c.087 1.624 1.305 2.58 3.277 2.58 2.146 0 3.509-1.275 3.509-3.334v-1.885c-.87 1.044-2.494 1.71-4.379 1.71-4.06 0-6.873-2.986-6.873-7.336m4.495-.116c0 2.088 1.392 3.567 3.364 3.567 2.03 0 3.393-1.421 3.393-3.567 0-2.117-1.363-3.48-3.422-3.48-1.972 0-3.335 1.42-3.335 3.48M121.059 33h-4.466V18.5h4.205l.29 1.508c.899-1.247 2.552-1.972 4.437-1.972 3.451 0 5.452 2.204 5.452 6.003v8.96h-4.466v-7.887c0-1.827-1.015-3.016-2.552-3.016-1.769 0-2.9 1.16-2.9 2.958zm12.337-7.28c0-4.581 3.364-7.655 8.004-7.655 4.611 0 7.975 3.074 7.975 7.656s-3.364 7.627-7.975 7.627c-4.64 0-8.004-3.045-8.004-7.627zm4.495-.028c0 2.204 1.421 3.654 3.509 3.654 2.059 0 3.48-1.45 3.48-3.654 0-2.175-1.421-3.625-3.48-3.625-2.088 0-3.509 1.45-3.509 3.625M156.431 33h-4.466V11.134h4.466zm5.554-16.762c-1.421 0-2.552-1.131-2.552-2.552s1.131-2.523 2.552-2.523c1.392 0 2.523 1.102 2.523 2.523s-1.131 2.552-2.523 2.552M159.781 33V18.5h4.466V33zm12.195.377c-3.074 0-4.988-1.798-4.988-4.64 0-2.668 1.885-4.321 5.365-4.582l4.06-.32v-.231c0-1.421-.87-2.175-2.465-2.175-1.885 0-2.9.725-2.9 2.03h-3.712c0-3.277 2.697-5.423 6.844-5.423 4.205 0 6.583 2.349 6.583 6.496V33h-3.944l-.29-1.914c-.464 1.334-2.378 2.29-4.553 2.29zm1.566-3.306c1.711 0 2.9-.841 2.9-2.494v-.783l-2.262.203c-1.943.174-2.639.609-2.639 1.537 0 1.044.638 1.537 2.001 1.537"/></g></svg>